<svg width="258" height="258" viewBox="0 0 258 258" fill="none" xmlns="http://www.w3.org/2000/svg">
<path d="M160.803 240.91C162.936 240.305 165.044 239.641 167.125 238.919C167.159 238.604 167.182 238.329 167.198 238.1C167.215 237.846 167.224 237.65 167.228 237.523C167.23 237.46 167.231 237.413 167.231 237.386L167.232 237.36C167.23 227.268 160.757 220.462 150.059 215.5C148.421 214.74 146.698 214.03 144.9 213.365C154.494 218.609 161.141 226.153 161.141 237.36L161.141 237.372L161.141 237.391L161.14 237.452C161.14 237.503 161.138 237.572 161.135 237.66C161.13 237.835 161.119 238.083 161.097 238.393C161.054 239.01 160.97 239.876 160.803 240.91Z" fill="#193CB8"/>
<path d="M155.221 213.365C164.803 218.603 171.445 226.134 171.461 237.317C173.471 236.529 175.453 235.687 177.405 234.792C176.39 226.093 170.144 220.03 160.379 215.5C158.742 214.74 157.018 214.031 155.221 213.365Z" fill="#193CB8"/>
<path d="M185.884 230.476C184.409 231.305 182.915 232.102 181.401 232.867C179.978 224.739 174.669 218.813 167.342 214.399C168.201 214.754 169.039 215.12 169.856 215.499C177.919 219.24 183.583 224.025 185.884 230.476Z" fill="#193CB8"/>
<path d="M176.822 214.399C182.7 217.941 187.279 222.456 189.594 228.301C190.779 227.576 191.951 226.83 193.108 226.065C189.783 221.207 184.142 217.425 176.822 214.399Z" fill="#193CB8"/>
<path d="M198.481 222.286C197.857 222.752 197.228 223.212 196.594 223.665C194.458 220.545 191.59 217.889 188.201 215.607C192.287 217.524 195.763 219.727 198.481 222.286Z" fill="#193CB8"/>
<path d="M203.16 218.607C202.729 218.964 202.296 219.317 201.86 219.668C199.876 217.716 197.561 215.982 194.992 214.431C198 215.678 200.742 217.061 203.16 218.607Z" fill="#193CB8"/>
<path d="M12.6885 129C12.6885 193.237 64.7629 245.311 129 245.311C138.386 245.311 147.513 244.2 156.256 242.1C156.413 241.439 156.534 240.814 156.626 240.247C156.771 239.352 156.842 238.61 156.878 238.1C156.895 237.846 156.904 237.65 156.908 237.523C156.91 237.46 156.911 237.413 156.911 237.386L156.912 237.356C156.91 227.264 150.437 220.462 139.739 215.5C129.002 210.519 114.557 207.68 99.828 205.387C96.01 204.793 92.1685 204.235 88.377 203.685C77.6902 202.133 67.4009 200.639 59.1583 198.55C53.5708 197.135 48.6891 195.394 45.1646 193.04C41.5871 190.65 39.165 187.443 39.165 183.18C39.165 178.98 41.5177 175.516 45.0036 172.676C48.4788 169.846 53.3204 167.426 58.918 165.271C70.0924 160.969 84.9223 157.491 99.554 154.058L99.6702 154.031C114.438 150.567 128.995 147.147 139.869 142.961C145.31 140.867 149.667 138.638 152.632 136.224C155.585 133.818 156.912 131.44 156.912 129C156.912 126.56 155.585 124.181 152.632 121.776C149.667 119.361 145.31 117.133 139.869 115.038C128.995 110.852 114.438 107.433 99.6702 103.969L99.5539 103.941C84.9222 100.509 70.0923 97.03 58.918 92.7284C53.3204 90.5736 48.4788 88.154 45.0036 85.3232C41.5177 82.4837 39.165 79.0193 39.165 74.8197C39.165 70.582 41.5585 67.2759 45.098 64.71C48.603 62.1691 53.4692 60.1631 59.0617 58.4602C68.2682 55.6568 79.9893 53.5239 91.9992 51.3383C94.5821 50.8683 97.1784 50.3958 99.7658 49.9137C114.51 47.1666 129 44.1039 139.788 39.4302C150.673 34.7146 156.912 28.7641 156.912 20.6398V20.4501V20.3672L156.945 20.2692L156.946 20.2597C156.949 20.2398 156.955 20.2018 156.961 20.147C156.975 20.0372 156.994 19.8605 157.008 19.6267C157.036 19.1579 157.044 18.4667 156.959 17.6286C156.909 17.1314 156.826 16.5857 156.695 16.0059C147.819 13.838 138.544 12.6885 129 12.6885C64.7629 12.6885 12.6885 64.7629 12.6885 129Z" fill="#193CB8"/>
<path d="M206.491 215.739C199.889 211.238 191.196 208.13 181.809 205.775C170.686 202.985 158.264 201.182 146.605 199.489L144.845 199.233C132.595 197.451 121.397 195.752 113.257 193.133C109.186 191.823 106.072 190.339 104.008 188.637C102.004 186.984 101.087 185.22 101.087 183.18C101.087 180.74 102.414 178.362 105.367 175.956C108.331 173.542 112.689 171.313 118.13 169.219C129.003 165.033 143.561 161.613 158.329 158.149L158.444 158.122C173.076 154.69 187.906 151.211 199.081 146.909C204.678 144.754 209.52 142.335 212.995 139.504C216.481 136.664 218.834 133.2 218.834 129C218.834 124.801 216.481 121.336 212.995 118.497C209.52 115.666 204.678 113.246 199.081 111.092C187.906 106.79 173.076 103.311 158.445 99.8787L158.329 99.8514C143.561 96.3872 129.003 92.9676 118.13 88.7818C112.689 86.6872 108.331 84.459 105.367 82.0445C102.414 79.6387 101.087 77.2603 101.087 74.8203C101.087 72.6624 102.118 70.7046 104.398 68.8121C106.723 66.8827 110.196 65.1596 114.664 63.5912C123.594 60.4563 135.781 58.1727 148.828 55.7955L150.445 55.5011C162.924 53.2297 176.023 50.8456 187.295 47.5217C193.689 45.6362 199.65 43.4076 204.632 40.633C229.532 61.9652 245.311 93.6399 245.311 129C245.311 163.472 230.315 194.441 206.491 215.739Z" fill="#193CB8"/>
<path d="M102.225 192.601C101.91 192.373 101.607 192.139 101.317 191.899C98.5871 189.648 96.8574 186.772 96.8574 183.18C96.8574 178.981 99.2101 175.516 102.696 172.677C103.76 171.81 104.952 170.982 106.255 170.188C101.932 171.998 98.4197 173.91 95.9081 175.956C92.9547 178.362 91.6278 180.74 91.6278 183.18C91.6278 185.345 92.6651 187.218 94.9696 188.97C96.745 190.319 99.1849 191.519 102.225 192.601Z" fill="#193CB8"/>
<path d="M87.3983 183.18C87.3983 186.832 89.1825 189.729 91.968 191.99C89.806 191.125 88.0004 190.186 86.5835 189.156C84.0991 187.349 82.9907 185.415 82.9907 183.18C82.9907 180.74 84.3176 178.361 87.271 175.955C89.2648 174.331 91.889 172.792 95.0495 171.32C94.4105 171.762 93.8054 172.214 93.2369 172.677C89.751 175.516 87.3983 178.981 87.3983 183.18Z" fill="#193CB8"/>
<path d="M88.2029 170.161C83.85 171.979 80.3163 173.899 77.7925 175.955C74.8391 178.361 73.5123 180.74 73.5123 183.18C73.5123 185.555 74.7698 187.611 77.6316 189.522C79.3397 190.663 81.5295 191.685 84.1469 192.613L84.0963 192.577C80.8807 190.239 78.7612 187.163 78.7612 183.18C78.7612 178.98 81.1139 175.516 84.5997 172.676C85.6758 171.8 86.8829 170.963 88.2029 170.161Z" fill="#193CB8"/>
<path d="M69.2827 183.18C69.2827 187.195 71.4313 190.273 74.6701 192.614C72.0523 191.686 69.8622 190.664 68.1539 189.523C65.2921 187.611 64.0346 185.556 64.0346 183.18C64.0346 180.74 65.3615 178.361 68.3149 175.956C70.8375 173.901 74.3693 171.981 78.7195 170.163C77.4015 170.964 76.196 171.801 75.1213 172.676C71.6354 175.516 69.2827 178.98 69.2827 183.18Z" fill="#193CB8"/>
<path d="M71.1584 169.065L70.7575 169.218C65.3163 171.313 60.959 173.541 57.9948 175.956C55.0415 178.361 53.7146 180.74 53.7146 183.18C53.7146 185.556 54.9721 187.611 57.8339 189.523C59.8898 190.896 62.6435 192.096 66.0009 193.169C65.935 193.126 65.8696 193.083 65.8046 193.04C62.2271 190.65 59.8051 187.444 59.8051 183.18C59.8051 178.98 62.1578 175.516 65.6436 172.676C67.2198 171.393 69.077 170.193 71.1584 169.065Z" fill="#193CB8"/>
<path d="M55.6814 193.169C52.3238 192.096 49.5699 190.896 47.5139 189.523C44.6521 187.611 43.3945 185.556 43.3945 183.18C43.3945 180.74 44.7214 178.361 47.6748 175.956C50.6389 173.541 54.9963 171.313 60.4375 169.218L60.8373 169.065C58.7564 170.194 56.8995 171.393 55.3236 172.676C51.8377 175.516 49.485 178.98 49.485 183.18C49.485 187.443 51.9071 190.65 55.4846 193.04C55.5497 193.083 55.6153 193.126 55.6814 193.169Z" fill="#193CB8"/>
<path d="M149.789 143.114L150.189 142.961C155.63 140.867 159.987 138.638 162.952 136.224C165.905 133.818 167.232 131.44 167.232 129C167.232 126.56 165.905 124.181 162.952 121.776C159.987 119.361 155.63 117.133 150.189 115.038L149.789 114.885C151.87 116.013 153.727 117.213 155.303 118.496C158.789 121.336 161.141 124.8 161.141 129C161.141 133.199 158.789 136.664 155.303 139.503C153.727 140.787 151.87 141.986 149.789 143.114Z" fill="#193CB8"/>
<path d="M160.11 114.886C162.191 116.014 164.047 117.213 165.623 118.496C169.109 121.336 171.461 124.8 171.461 129C171.461 133.199 169.109 136.664 165.623 139.503C164.047 140.787 162.189 141.986 160.108 143.115L160.509 142.961C165.95 140.867 170.307 138.639 173.272 136.224C176.225 133.818 177.552 131.44 177.552 129C177.552 126.56 176.225 124.181 173.272 121.776C170.307 119.361 165.95 117.133 160.509 115.038L160.11 114.886Z" fill="#193CB8"/>
<path d="M182.749 136.224C180.227 138.279 176.695 140.199 172.344 142.016C173.663 141.215 174.868 140.379 175.943 139.503C179.429 136.664 181.781 133.199 181.781 129C181.781 124.8 179.429 121.336 175.943 118.496C174.867 117.62 173.66 116.783 172.34 115.981C176.692 117.799 180.226 119.72 182.749 121.775C185.703 124.181 187.03 126.56 187.03 129C187.03 131.439 185.703 133.818 182.749 136.224Z" fill="#193CB8"/>
<path d="M181.819 115.981C183.138 116.783 184.345 117.62 185.42 118.496C188.906 121.336 191.259 124.8 191.259 129C191.259 133.199 188.906 136.663 185.42 139.503C184.344 140.379 183.137 141.217 181.817 142.019C186.17 140.2 189.704 138.28 192.228 136.224C195.181 133.818 196.508 131.44 196.508 129C196.508 126.56 195.181 124.181 192.228 121.775C189.704 119.72 186.171 117.799 181.819 115.981Z" fill="#193CB8"/>
<path d="M200.865 136.225C198.871 137.849 196.247 139.389 193.086 140.86C193.725 140.418 194.33 139.966 194.899 139.503C198.385 136.664 200.737 133.199 200.737 129C200.737 124.8 198.385 121.336 194.899 118.496C194.332 118.034 193.729 117.584 193.092 117.143C196.25 118.614 198.872 120.153 200.865 121.776C203.818 124.182 205.145 126.56 205.145 129C205.145 131.44 203.818 133.819 200.865 136.225Z" fill="#193CB8"/>
<path d="M199.977 141.993C201.28 141.199 202.472 140.371 203.536 139.504C207.022 136.664 209.375 133.2 209.375 129C209.375 124.801 207.022 121.336 203.536 118.497C202.472 117.63 201.279 116.802 199.976 116.007C204.3 117.818 207.812 119.73 210.324 121.776C213.277 124.182 214.604 126.56 214.604 129C214.604 131.44 213.277 133.819 210.324 136.224C207.812 138.27 204.301 140.182 199.977 141.993Z" fill="#193CB8"/>
<path d="M60.8373 88.9342L60.4375 88.7813C54.9963 86.6867 50.639 84.4585 47.6748 82.044C44.7215 79.6382 43.3946 77.2597 43.3946 74.8198C43.3946 72.418 44.6807 70.2365 47.5804 68.1344C49.9513 66.4157 53.2351 64.8828 57.2816 63.4827C56.6245 63.8777 56.0024 64.2864 55.418 64.71C51.8785 67.2759 49.4851 70.582 49.4851 74.8198C49.4851 79.0193 51.8377 82.4837 55.3236 85.3232C56.8995 86.6069 58.7564 87.806 60.8373 88.9342Z" fill="#193CB8"/>
<path d="M67.6023 63.4825C63.5554 64.8826 60.2714 66.4156 57.9005 68.1344C55.0007 70.2365 53.7146 72.418 53.7146 74.8198C53.7146 77.2597 55.0415 79.6382 57.9948 82.044C60.959 84.4585 65.3163 86.6867 70.7575 88.7813L71.1562 88.9338C69.0757 87.8057 67.2192 86.6068 65.6436 85.3234C62.1578 82.4838 59.8051 79.0195 59.8051 74.8199C59.8051 70.5822 62.1985 67.2761 65.738 64.7102C66.3226 64.2864 66.945 63.8776 67.6023 63.4825Z" fill="#193CB8"/>
<path d="M75.1213 85.323C76.1973 86.1994 77.4042 87.0364 78.724 87.8384C74.3717 86.0203 70.8384 84.0998 68.3149 82.0441C65.3615 79.6384 64.0346 77.2599 64.0346 74.8199C64.0346 72.4181 65.3207 70.2367 68.2205 68.1345C70.1931 66.7046 72.7975 65.4033 75.9475 64.2C75.6975 64.3675 75.4535 64.5374 75.2157 64.7098C71.6762 67.2757 69.2827 70.5818 69.2827 74.8195C69.2827 79.019 71.6354 82.4834 75.1213 85.323Z" fill="#193CB8"/>
<path d="M85.3368 64.2334C82.2265 65.4272 79.6522 66.7175 77.6982 68.1341C74.7984 70.2362 73.5123 72.4177 73.5123 74.8195C73.5123 77.2595 74.8391 79.638 77.7925 82.0437C80.3159 84.0992 83.8491 86.0197 88.2011 87.8377C86.8818 87.036 85.6753 86.1993 84.5997 85.3231C81.1139 82.4836 78.7612 79.0192 78.7612 74.8197C78.7612 70.8746 80.8293 67.7217 83.974 65.2303C84.4054 64.8885 84.8602 64.5564 85.3368 64.2334Z" fill="#193CB8"/>
<path d="M93.2369 85.3238C93.8038 85.7855 94.4069 86.2363 95.0438 86.6768C91.8859 85.206 89.2636 83.6671 87.271 82.0439C84.3176 79.6381 82.9907 77.2596 82.9907 74.8197C82.9907 72.5618 84.1117 70.5172 86.6005 68.5455C88.2499 67.2387 90.4236 66.0317 93.0666 64.9055C92.753 65.1399 92.4505 65.379 92.1596 65.623C89.2679 68.0491 87.3983 71.0827 87.3983 74.8203C87.3983 79.0199 89.751 82.4842 93.2369 85.3238Z" fill="#193CB8"/>
<path d="M106.256 87.8131C104.953 87.0191 103.76 86.1907 102.696 85.3237C99.2101 82.4842 96.8574 79.0198 96.8574 74.8203C96.8574 71.0478 98.7615 67.9943 101.697 65.5576C102.257 65.0931 102.859 64.6463 103.5 64.2161C99.8066 65.6301 96.8986 67.168 94.878 68.8632C92.6414 70.7397 91.6278 72.6807 91.6278 74.8203C91.6278 77.2603 92.9547 79.6388 95.9081 82.0445C98.4198 84.0905 101.932 86.0027 106.256 87.8131Z" fill="#193CB8"/>
<path d="M146.426 40.9127C147.695 40.4368 148.924 39.9432 150.108 39.4302C160.993 34.7146 167.232 28.7641 167.232 20.6398V20.4688L167.263 20.2757L167.265 20.2692L167.266 20.2597C167.269 20.2398 167.275 20.2018 167.281 20.147C167.295 20.0372 167.314 19.8605 167.328 19.6267C167.336 19.4889 167.342 19.3319 167.346 19.1576C165.311 18.4474 163.251 17.7921 161.166 17.1936L161.167 17.2009C161.279 18.2978 161.269 19.2191 161.23 19.8791C161.21 20.2096 161.183 20.4764 161.159 20.6689L161.141 20.8045C161.068 29.886 155.021 36.2478 146.426 40.9127Z" fill="#193CB8"/>
<path d="M171.476 20.6884L171.461 20.8045C171.388 29.8864 165.34 36.2483 156.745 40.9132C158.015 40.4372 159.244 39.9435 160.428 39.4304C170.146 35.2201 176.161 30.0254 177.339 23.178C175.412 22.2965 173.457 21.4661 171.476 20.6884Z" fill="#193CB8"/>
<path d="M169.906 39.43C169.594 39.5652 169.278 39.6991 168.96 39.8317C175.189 36.0864 179.796 31.3156 181.275 25.0697C182.682 25.7785 184.072 26.5151 185.445 27.2787C182.95 32.1632 177.583 36.1038 169.906 39.43Z" fill="#193CB8"/>
<path d="M189.12 29.4108C187.168 33.1124 183.989 36.2066 180.03 38.8269C184.964 36.5418 188.895 33.9433 191.581 30.9419C190.767 30.4216 189.947 29.9112 189.12 29.4108Z" fill="#193CB8"/>
<path d="M196.901 34.5553C194.263 36.4494 191.064 38.1488 187.412 39.6906C190.454 37.8251 193.081 35.716 195.132 33.3056C195.726 33.7168 196.315 34.1334 196.901 34.5553Z" fill="#193CB8"/>
<path d="M196.61 39.8002C198.194 39.1385 199.694 38.448 201.1 37.7257C200.877 37.549 200.653 37.373 200.428 37.1979C199.248 38.1139 197.971 38.9798 196.61 39.8002Z" fill="#193CB8"/>
</svg>
